<?xml version="1.0" encoding="UTF-8"?>
<svg width="50px" height="30px" viewBox="0 0 50 30" version="1.1" xmlns="http://www.w3.org/2000/svg" xmlns:xlink="http://www.w3.org/1999/xlink">
    <!-- Generator: Sketch 47.1 (45422) - http://www.bohemiancoding.com/sketch -->
    <title>icon-payment-mastercard-light</title>
    <desc>Created with Sketch.</desc>
    <defs></defs>
    <g id="Layouts" stroke="none" stroke-width="1" fill="none" fill-rule="evenodd">
        <g id="Cart" transform="translate(-309.000000, -760.000000)">
            <g id="icon-payment-mastercard-light" transform="translate(309.000000, 760.000000)">
                <rect id="Rectangle" fill="#FBF7F4" x="0" y="0" width="50" height="30" rx="4"></rect>
                <path d="M29,15.000158 C29,20.5232466 24.523124,25 19.000237,25 C13.4771921,25 9,20.5232466 9,15.000158 C9,9.47722747 13.4771921,5 19.000237,5 C24.523124,5 29,9.47722747 29,15.000158" id="Fill-333" fill="#CC0000"></path>
                <path d="M31.3922723,5 C28.9091461,5 26.6473968,5.98027751 24.9419747,7.58841936 C24.5950294,7.9161794 24.2711631,8.27017289 23.972198,8.64708113 L25.9134215,8.64708113 C26.1785272,8.98305888 26.4228313,9.33626221 26.6458785,9.70621701 L23.2395892,9.70621701 C23.0358253,10.0461456 22.8505854,10.3993489 22.6859951,10.7653529 L27.1991689,10.7653529 C27.3534343,11.108126 27.4891757,11.4611713 27.6060894,11.8240147 L22.2790746,11.8240147 C22.1682343,12.1688423 22.0747033,12.5222036 22,12.8825184 L27.8848604,12.8825184 C28.0257642,13.5652201 28.1007712,14.2735232 28.1007712,15.000158 C28.1007712,16.1103385 27.9269189,17.1789564 27.6060894,18.1769335 L22.2790746,18.1769335 C22.3959883,18.5394608 22.5317297,18.8929802 22.6856915,19.2362274 L27.1991689,19.2362274 C27.034275,19.6012832 26.8499461,19.9548026 26.6449674,20.2952053 L23.2395892,20.2952053 C23.4617253,20.6640539 23.706485,21.0177313 23.972198,21.3532349 L25.9128142,21.3532349 C25.6144564,21.7304592 25.2902865,22.0844527 24.9422783,22.4122128 C26.6475486,24.0203546 28.9091461,25 31.3922723,25 C36.6984856,25 41,20.5232466 41,15.000158 C41,9.47770157 36.6984856,5 31.3922723,5" id="Fill-334" fill="#FF9900"></path>
                <path d="M15.946133,16.2191104 C15.8461998,16.2070236 15.8021238,16.2031912 15.7335151,16.2031912 C15.1937927,16.2031912 14.9208822,16.4001179 14.9208822,16.7891071 C14.9208822,17.0286325 15.0540803,17.1808969 15.2619857,17.1808969 C15.6499371,17.1808969 15.9295005,16.7882227 15.946133,16.2191104 L15.946133,16.2191104 Z M16.6387351,17.9335225 L15.8495263,17.9335225 L15.8676833,17.5348049 C15.6270675,17.8496518 15.305923,18 14.8697375,18 C14.353855,18 14,17.5716549 14,16.9491838 C14,16.0121605 14.6152613,15.4657479 15.6715593,15.4657479 C15.7798087,15.4657479 15.918135,15.4763607 16.0597879,15.4953753 C16.0891719,15.3683163 16.0969337,15.3143678 16.0969337,15.2458267 C16.0969337,14.9911191 15.9311638,14.8956038 15.4863849,14.8956038 C15.0205382,14.8905922 14.6363291,15.0139662 14.4784596,15.0690939 C14.488439,15.0051222 14.6105488,14.2037071 14.6105488,14.2037071 C15.0848503,14.0554225 15.3978172,14 15.7500089,14 C16.5677701,14 17.0009063,14.3903158 16.999936,15.1282013 C17.0015993,15.3261599 16.9706907,15.5695176 16.9228724,15.8905553 C16.8402647,16.4477282 16.6628521,17.6427018 16.6387351,17.9335225 L16.6387351,17.9335225 Z" id="Fill-336" fill="#000066"></path>
                <polyline id="Fill-337" fill="#000066" points="13.1915949 18 12.1461307 18 12.7453212 14.1566502 11.4080217 18 10.6957792 18 10.6076808 14.1781475 9.97836341 18 9 18 9.81723015 13 11.3203798 13 11.4112169 15.7987039 12.3282615 13 14 13 13.1915949 18"></polyline>
                <path d="M32.945758,16.2191104 C32.8458156,16.2070236 32.8022901,16.2031912 32.7338136,16.2031912 C32.1936256,16.2031912 31.9209672,16.4001179 31.9209672,16.7891071 C31.9209672,17.0286325 32.053623,17.1808969 32.2621021,17.1808969 C32.649812,17.1808969 32.9295399,16.7882227 32.945758,16.2191104 L32.945758,16.2191104 Z M33.6388398,17.9335225 L32.8498355,17.9335225 L32.867717,17.5348049 C32.627079,17.8496518 32.3060434,18 31.870095,18 C31.3534717,18 31,17.5716549 31,16.9491838 C31,16.0121605 31.6155953,15.4657479 32.6717134,15.4657479 C32.7798342,15.4657479 32.9178961,15.4763607 33.0597007,15.4953753 C33.0892259,15.3683163 33.0968498,15.3143678 33.0968498,15.2458267 C33.0968498,14.9911191 32.9310647,14.8956038 32.4862447,14.8956038 C32.0203551,14.8905922 31.6362491,15.0139662 31.4778106,15.0690939 C31.4883455,15.0051222 31.6107437,14.2037071 31.6107437,14.2037071 C32.0848117,14.0554225 32.3980847,14 32.7497544,14 C33.5681455,14 34.0007672,14.3903158 33.9999355,15.1282013 C34.0015989,15.3261599 33.9709647,15.5695176 33.9228648,15.8905553 C33.8405267,16.4477282 33.6626819,17.6427018 33.6388398,17.9335225 L33.6388398,17.9335225 Z" id="Fill-338" fill="#000066"></path>
                <path d="M21.4726912,17.8610064 C21.2054854,17.9580397 20.9973746,18 20.7715068,18 C20.2727511,18 20.0004314,17.6692346 20.0004314,17.0599902 C19.9934707,16.8708408 20.0721692,16.3733814 20.1341053,15.9196853 C20.1906432,15.5199148 20.5574297,13 20.5574297,13 L21.5272404,13 L21.4140224,13.6475988 L22,13.6475988 L21.8677466,14.6759548 L21.2797803,14.6759548 C21.1671305,15.489428 21.0064661,16.5030323 21.0046194,16.6374365 C21.0046194,16.8580561 21.106615,16.9544337 21.3388752,16.9544337 C21.4501044,16.9544337 21.5361899,16.9413211 21.6019614,16.9141124 L21.4726912,17.8610064" id="Fill-339" fill="#000066"></path>
                <path d="M24.6399093,17.8438842 C24.3075833,17.9495696 23.9872981,18.0011594 23.6474643,17.9999802 C22.5645009,17.9985062 22,17.4103822 22,16.2835131 C22,14.9684147 22.7180565,14 23.6930777,14 C24.4904618,14 25,14.5421354 25,15.3920409 C25,15.6746057 24.9651525,15.949948 24.8805836,16.3384931 L22.9543394,16.3384931 C22.8893191,16.896695 23.232411,17.129144 23.7954953,17.129144 C24.1412787,17.129144 24.4537728,17.0548546 24.8009727,16.8872614 L24.6399093,17.8438842 L24.6399093,17.8438842 Z M24.0962319,15.5630243 C24.1017565,15.4826916 24.1986495,14.8761426 23.6457645,14.8761426 C23.3380867,14.8761426 23.1175276,15.120531 23.0281424,15.5630243 L24.0962319,15.5630243 L24.0962319,15.5630243 Z" id="Fill-340" fill="#000066"></path>
                <path d="M17.4113987,15.3024284 C17.4113987,15.7887018 17.6644699,16.1243321 18.238625,16.3765339 C18.6784942,16.5694808 18.7469816,16.6265247 18.7469816,16.8011939 C18.7469816,17.0407193 18.5527495,17.1495007 18.1230031,17.1495007 C17.7985976,17.1495007 17.4971266,17.1020378 17.149312,16.9972362 C17.149312,16.9972362 17.0068013,17.845672 17,17.886207 C17.2469025,17.9360283 17.4670744,17.9824594 18.1307534,18 C19.2771656,18 19.8067169,17.5931754 19.8067169,16.713933 C19.8067169,16.1853558 19.5852797,15.8750783 19.0408604,15.6415963 C18.5854906,15.4468806 18.5328202,15.4032502 18.5328202,15.2237167 C18.5328202,15.015735 18.7136078,14.9094594 19.0645859,14.9094594 C19.2779565,14.9094594 19.5691464,14.930685 19.8454684,14.9670929 L20,14.0747319 C19.7187747,14.0330177 19.2920335,14 19.0437075,14 C17.8283334,14 17.4074445,14.5915171 17.4113987,15.3024284" id="Fill-341" fill="#000066"></path>
                <path d="M29.8584001,14.1555904 C30.1582587,14.1555904 30.4383153,14.2276877 30.8231966,14.4074946 L31,13.3949358 C30.8412698,13.3373743 30.2847713,13 29.8132956,13 C29.0909948,13 28.479648,13.331996 28.0504479,13.8786848 C27.4236995,13.6868132 27.1658023,14.0746264 26.8502279,14.4612768 L26.5696998,14.5217455 C26.5909162,14.3945578 26.6102467,14.2682423 26.6041176,14.1401826 L25.6121326,14.1401826 C25.4769763,15.3148148 25.2369951,16.5041281 25.0491906,17.6791965 L25,17.9344439 L26.0801509,17.9344439 C26.2604118,16.8509506 26.3589502,16.157451 26.4189848,15.6876563 L26.8257111,15.4792139 C26.8868458,15.2697541 27.0765362,15.1994011 27.4581172,15.2079772 C27.408298,15.4553753 27.3812667,15.7160009 27.3812667,15.9856387 C27.3812667,17.2271353 28.1063964,18 29.2681125,18 C29.5674996,18 29.824611,17.9636607 30.2226937,17.8633641 L30.4119126,16.8002209 C30.0539054,16.9628757 29.7608047,17.039479 29.4950495,17.039479 C28.8673582,17.039479 28.4875059,16.6108204 28.4875059,15.902785 C28.4875059,14.8752544 29.0520195,14.1555904 29.8584001,14.1555904" id="Fill-342" fill="#000066"></path>
                <path d="M38.9655751,13 L38.7324632,14.4245115 C38.4462255,14.0449183 38.1381574,13.7699398 37.7314709,13.7699398 C37.202351,13.7699398 36.7207083,14.1736512 36.4053126,14.7681578 C35.9661095,14.6764471 35.512251,14.5205235 35.512251,14.5205235 L35.5119457,14.524364 C35.5469048,14.1920855 35.5617128,13.9899226 35.5582017,13.9207939 L34.5947638,13.9207939 C34.4639341,15.1621912 34.2305168,16.4191041 34.0482406,17.6609623 L34,17.9307177 L35.0495382,17.9307177 C35.1912068,17.0053152 35.2994428,16.2359899 35.379284,15.6267359 C35.7380353,15.3004486 35.9175635,15.0167138 36.2792153,15.0351481 C36.1187696,15.4256483 36.0251889,15.8751383 36.0251889,16.3363033 C36.0251889,17.3383618 36.5286619,18 37.2913518,18 C37.6757499,18 37.9706893,17.8665049 38.2583009,17.5574229 L38.208839,17.9304105 L39.2011297,17.9304105 L40,13 L38.9655751,13 L38.9655751,13 Z M37.6540722,17.0043935 C37.2971529,17.0043935 37.1164033,16.7380177 37.1164033,16.2138687 C37.1164033,15.4256483 37.4542401,14.866935 37.9297764,14.866935 C38.2902069,14.866935 38.4856118,15.1428352 38.4856118,15.6522367 C38.4856118,16.4472164 38.1421266,17.0043935 37.6540722,17.0043935 L37.6540722,17.0043935 Z" id="Fill-343" fill="#000066"></path>
                <polyline id="Fill-344" fill="#FFFFFF" points="13.1914427 18 12.1462828 18 12.7453212 14.1562909 11.408326 18 10.6957792 18 10.607833 14.1785692 9.97836341 18 9 18 9.81723015 13 11.3203798 13 11.3623749 16.0952826 12.3766471 13 14 13 13.1914427 18"></polyline>
                <path d="M15.9460006,16.2195365 C15.8462057,16.2071558 15.8021296,16.2037658 15.7335206,16.2037658 C15.1937965,16.2037658 14.9207466,16.4003832 14.9207466,16.789049 C14.9207466,17.0282619 15.0540836,17.1813995 15.2621283,17.1813995 C15.6499424,17.1813995 15.9295067,16.7887542 15.9460006,16.2195365 L15.9460006,16.2195365 Z M16.6384663,17.9332326 L15.8496708,17.9332326 L15.8676893,17.5348392 C15.6270727,17.8495155 15.3059272,18 14.8697403,18 C14.3537175,18 14,17.5710969 14,16.948819 C14,16.0117175 14.6154019,15.466082 15.6717032,15.466082 C15.7796757,15.466082 15.9180025,15.4765467 16.0597945,15.4960021 C16.0891785,15.3686577 16.0969403,15.3145658 16.0969403,15.2457349 C16.0969403,14.9911935 15.9311699,14.8964221 15.4863896,14.8964221 C15.0204029,14.8905265 14.6363311,15.0138914 14.4783225,15.0688677 C14.4884406,15.0051955 14.6104121,14.2038395 14.6104121,14.2038395 C15.0848537,14.0558606 15.3978216,14 15.7500145,14 C16.5676396,14 17.0006386,14.3907292 16.9999456,15.1282656 C17.0014702,15.3259147 16.9708387,15.5704337 16.9228817,15.8905634 C16.8401351,16.447253 16.662722,17.6428756 16.6384663,17.9332326 L16.6384663,17.9332326 Z" id="Fill-345" fill="#FFFFFF"></path>
                <path d="M32,13.249925 L31.8045433,14.2941529 C31.3783608,14.1092954 31.069626,14.0344828 30.7384789,14.0344828 C29.84737,14.0344828 29.222256,14.7776612 29.222256,15.8376312 C29.222256,16.567916 29.6423576,17.0091454 30.3362724,17.0091454 C30.6302393,17.0091454 30.9549581,16.9307346 31.3498675,16.7623688 L31.1401642,17.8589205 C30.7007775,17.9622189 30.4163662,18 30.0855666,18 C28.800417,18 28,17.2026987 28,15.9224888 C28,14.2022489 29.1065456,13 30.6882683,13 C31.2094862,13 31.8250445,13.1905547 32,13.249925" id="Fill-346" fill="#FFFFFF"></path>
                <path d="M32.9455565,16.2195365 C32.8463033,16.2071558 32.8020829,16.2037658 32.7336038,16.2037658 C32.1940879,16.2037658 31.9208644,16.4003832 31.9208644,16.789049 C31.9208644,17.0282619 32.0540799,17.1813995 32.2620125,17.1813995 C32.6497376,17.1813995 32.929615,16.7887542 32.9455565,16.2195365 L32.9455565,16.2195365 Z M33.6386653,17.9332326 L32.8497688,17.9332326 L32.867651,17.5348392 C32.6270037,17.8495155 32.305817,18 31.8699902,18 C31.3533469,18 31,17.5710969 31,16.948819 C31,16.0117175 31.6149261,15.466082 32.6716399,15.466082 C32.7796262,15.466082 32.9176935,15.4765467 33.0593649,15.4960021 C33.0888914,15.3686577 33.0966542,15.3145658 33.0966542,15.2457349 C33.0966542,14.9911935 32.9312784,14.8964221 32.4861639,14.8964221 C32.0205334,14.8905265 31.6365511,15.0138914 31.4782451,15.0688677 C31.4882259,15.0051955 31.6103516,14.2038395 31.6103516,14.2038395 C32.0848539,14.0558606 32.3975846,14 32.7498225,14 C33.5675523,14 34.0010226,14.3907292 33.9999136,15.1282656 C34.0018543,15.3259147 33.9709417,15.5704337 33.9229785,15.8905634 C33.8404986,16.447253 33.6630627,17.6428756 33.6386653,17.9332326 L33.6386653,17.9332326 Z" id="Fill-347" fill="#FFFFFF"></path>
                <path d="M21.5402986,17.8608379 C21.2611199,17.9578744 21.0431555,18 20.8072131,18 C20.285406,18 20.0004328,17.6690598 20.0004328,17.0604511 C19.993301,16.8706399 20.075762,16.3739837 20.1406907,15.919781 C20.1993792,15.5196696 20.583157,13 20.583157,13 L21.5977985,13 L21.4790844,13.6474561 L22,13.6474561 L21.8612278,14.675518 L21.3386778,14.675518 C21.2208552,15.4898374 21.0528131,16.5028193 21.050733,16.6372279 C21.050733,16.8585104 21.157858,16.9542355 21.4004864,16.9542355 C21.5168233,16.9542355 21.6067132,16.9416142 21.6758021,16.913749 L21.5402986,17.8608379" id="Fill-348" fill="#FFFFFF"></path>
                <path d="M24.6403003,17.8443556 C24.3078013,17.9503285 23.9867775,18.0002935 23.6473366,17.9999987 C22.5641292,17.9992618 22,17.4104414 22,16.2837975 C22,14.9683478 22.7179826,14 23.6923876,14 C24.490697,14 25,14.5420979 25,15.3929764 C25,15.6749322 24.9645825,15.9501081 24.8809974,16.3387737 L22.9542879,16.3387737 C22.8889781,16.896937 23.2325274,17.1298122 23.7950982,17.1298122 C24.1411976,17.1298122 24.4535795,17.0552332 24.8012372,16.8872094 L24.6403003,17.8443556 L24.6403003,17.8443556 Z M24.0964299,15.5629163 C24.1016717,15.4824418 24.1989989,14.8762295 23.6462032,14.8762295 C23.3382131,14.8762295 23.1176332,15.1210432 23.0279562,15.5629163 L24.0964299,15.5629163 L24.0964299,15.5629163 Z" id="Fill-349" fill="#FFFFFF"></path>
                <path d="M17.4110824,15.3023324 C17.4110824,15.7894543 17.6644699,16.1243229 18.2387831,16.3768009 C18.6786524,16.5695862 18.7468234,16.6266259 18.7468234,16.8014297 C18.7468234,17.0412322 18.5527495,17.149416 18.1226868,17.149416 C17.7985976,17.149416 17.4969684,17.1025462 17.1489956,16.9980471 C17.1489956,16.9980471 17.0066431,17.8458307 17,17.8857732 C17.2467443,17.9361804 17.4670744,17.9821659 18.1304371,18 C19.2771656,18 19.8067169,17.5933527 19.8067169,16.7141752 C19.8067169,16.1853421 19.5849634,15.8752349 19.0407023,15.6423597 C18.5851743,15.4470688 18.5328202,15.4038837 18.5328202,15.2240687 C18.5328202,15.0161023 18.7134497,14.9090976 19.064744,14.9090976 C19.2776401,14.9090976 19.5691464,14.931206 19.8453103,14.9674638 L20,14.075316 C19.7186165,14.0338996 19.2921917,14 19.0437075,14 C17.8280171,14 17.4074445,14.5916209 17.4110824,15.3023324" id="Fill-350" fill="#FFFFFF"></path>
                <path d="M39.1962208,17.9304083 L38.1979491,17.9304083 L38.2474171,17.5572557 C37.9578292,17.8665008 37.6611745,18 37.2743404,18 C36.5074317,18 36,17.3391096 36,16.3359449 C36,15.0021815 36.7867266,13.8779611 37.7172485,13.8779611 C38.1265123,13.8779611 38.436379,14.045104 38.7250451,14.4248625 L38.9591735,13 L40,13 L39.1962208,17.9304083 L39.1962208,17.9304083 Z M37.6392057,17.003902 C38.1309675,17.003902 38.4760149,16.4470151 38.4760149,15.6527791 C38.4760149,15.1432083 38.2795253,14.8663779 37.9168107,14.8663779 C37.4381073,14.8663779 37.0982832,15.4252619 37.0982832,16.2138139 C37.0982832,16.7385934 37.2803318,17.003902 37.6392057,17.003902 L37.6392057,17.003902 Z" id="Fill-351" fill="#FFFFFF"></path>
                <path d="M34.7132393,14.0424888 C34.5559421,15.2674508 34.2761399,16.50803 34.0573155,17.7339017 L34,18 L35.2581945,18 C35.7082952,15.5797941 35.8165171,15.1074886 36.5226149,15.1664699 C36.6348654,14.6711177 36.8441677,14.2373243 37,14.018684 C36.4731734,13.9277102 36.178905,14.1742492 35.7932613,14.6427642 C35.8240249,14.4400442 35.8795092,14.2433893 35.8690716,14.0424888 L34.7132393,14.0424888" id="Fill-352" fill="#FFFFFF"></path>
                <path d="M25.7138323,14.0424888 C25.5557929,15.2674508 25.2756074,16.50803 25.0571359,17.7339017 L25,18 L26.2586375,18 C26.7089488,15.5797941 26.8168111,15.1074886 27.5218533,15.1664699 C27.6348431,14.6711177 27.8445245,14.2373243 28,14.018684 C27.4736906,13.9277102 27.1788548,14.1742492 26.7939202,14.6427642 C26.8243194,14.4400442 26.8801734,14.2433893 26.8691857,14.0424888 L25.7138323,14.0424888" id="Fill-353" fill="#FFFFFF"></path>
            </g>
        </g>
    </g>
</svg>