<?xml version="1.0" encoding="UTF-8"?>
<svg width="12px" height="16px" viewBox="0 0 12 16" version="1.1" xmlns="http://www.w3.org/2000/svg" xmlns:xlink="http://www.w3.org/1999/xlink">
    <!-- Generator: Sketch 47.1 (45422) - http://www.bohemiancoding.com/sketch -->
    <title>icon-tumblr</title>
    <desc>Created with Sketch.</desc>
    <defs></defs>
    <g id="Layouts" stroke="none" stroke-width="1" fill="none" fill-rule="evenodd">
        <g id="Product-Accordion-Expanded" transform="translate(-1140.000000, -783.000000)" fill-rule="nonzero" fill="#A89D98">
            <g id="icon-tumblr" transform="translate(1140.000000, 783.000000)">
                <path d="M11.008,11.6593333 L10.944,11.614 L8.76133333,11.614 C8.65933333,11.614 8.65466667,11.3026667 8.65266667,11.1993333 L8.65266667,7.39 C8.65266667,7.35266667 8.68266667,7.32266667 8.72,7.32266667 L11.2666667,7.32266667 C11.304,7.32266667 11.334,7.29266667 11.334,7.25533333 L11.334,3.41133333 C11.334,3.37466667 11.304,3.34466667 11.2666667,3.34466667 L8.73133333,3.34466667 C8.69466667,3.34466667 8.66466667,3.31466667 8.66466667,3.27733333 L8.66466667,0.0666666667 C8.66466667,0.03 8.63466667,-2.13717932e-15 8.59733333,-2.13717932e-15 L3.83066667,-2.13717932e-15 C3.50466667,-2.13717932e-15 3.12866667,0.241333333 3.074,0.689333333 C2.84666667,2.54133333 1.81933333,3.43933333 0.223333333,3.97266667 L0.0453333333,4.032 L-2.66453526e-15,4.096 L-2.66453526e-15,7.256 C-2.66453526e-15,7.29333333 0.03,7.32333333 0.0666666667,7.32333333 L2,7.32333333 L2,11.4273333 C2,14.534 4.02666667,16 8.00533333,16 C9.606,16 11.3706667,15.43 11.8953333,14.7393333 L12,14.6006667 L11.008,11.6593333 L11.008,11.6593333 Z M11.234,14.498 C10.734,14.9786667 9.53133333,15.3353333 8.54866667,15.352 L8.43866667,15.3526667 C5.206,15.3526667 4.65066667,12.8853333 4.65066667,11.4266667 L4.65066667,6.734 C4.65066667,6.69666667 4.62066667,6.66666667 4.584,6.66666667 L2.72933333,6.66666667 C2.692,6.66666667 2.662,6.63666667 2.662,6.59933333 L2.646,4.55933333 L2.68866667,4.498 C4.35933333,3.84733333 5.292,2.768 5.53733333,0.769333333 C5.55133333,0.658 5.64266667,0.655333333 5.64333333,0.655333333 L7.94133333,0.655333333 C7.978,0.655333333 8.00866667,0.685333333 8.00866667,0.722666667 L8.00866667,3.93333333 C8.00866667,3.97066667 8.03866667,4.00066667 8.07533333,4.00066667 L10.6106667,4.00066667 C10.648,4.00066667 10.678,4.03066667 10.678,4.06733333 L10.678,6.60133333 C10.678,6.63866667 10.648,6.66866667 10.6106667,6.66866667 L8.06466667,6.66866667 C8.02733333,6.66866667 8,6.69866667 8,6.736 L8,11.206 C8.01533333,12.1646667 8.47666667,12.6506667 9.37666667,12.6506667 C9.73933333,12.6506667 10.1206667,12.5666667 10.5,12.4213333 C10.5353333,12.4073333 10.574,12.426 10.5866667,12.462 L11.25,14.4286667 L11.234,14.498 L11.234,14.498 Z" id="Shape"></path>
            </g>
        </g>
    </g>
</svg>