<?xml version="1.0" encoding="UTF-8"?>
<svg width="19px" height="16px" viewBox="0 0 19 16" version="1.1" xmlns="http://www.w3.org/2000/svg" xmlns:xlink="http://www.w3.org/1999/xlink">
    <!-- Generator: Sketch 47.1 (45422) - http://www.bohemiancoding.com/sketch -->
    <title>icon-twitter</title>
    <desc>Created with Sketch.</desc>
    <defs></defs>
    <g id="Layouts" stroke="none" stroke-width="1" fill="none" fill-rule="evenodd">
        <g id="Product-Accordion-Expanded" transform="translate(-1037.000000, -783.000000)" fill-rule="nonzero" fill="#A89D98">
            <g id="icon-twitter" transform="translate(1037.000000, 783.000000)">
                <path d="M19,1.81098039 C18.3009583,2.11843137 17.5496667,2.3254902 16.7611667,2.41882353 C17.5662917,1.94117647 18.1845833,1.18431373 18.475125,0.282352941 C17.72225,0.724705882 16.8878333,1.04627451 15.9995833,1.21960784 C15.2894583,0.469019608 14.2753333,0 13.1543333,0 C10.637625,0 8.78829167,2.32627451 9.35670833,4.74117647 C6.118,4.58039216 3.24583333,3.04313725 1.322875,0.706666667 C0.301625,2.44235294 0.79325,4.71294118 2.52858333,5.8627451 C1.8905,5.84235294 1.28883333,5.66901961 0.763958333,5.37960784 C0.721208333,7.16862745 2.01558333,8.84235294 3.89025,9.21490196 C3.341625,9.36235294 2.74075,9.39686275 2.12958333,9.28078431 C2.62516667,10.814902 4.06441667,11.9309804 5.77125,11.9623529 C4.1325,13.2352941 2.06783333,13.8039216 -1.77635684e-15,13.5623529 C1.72504167,14.6580392 3.77466667,15.2972549 5.9755,15.2972549 C13.2129167,15.2972549 17.301875,9.24156863 17.054875,3.81019608 C17.8164583,3.26509804 18.4775,2.58509804 19,1.81098039 Z" id="Shape"></path>
            </g>
        </g>
    </g>
</svg>