<?xml version="1.0" encoding="UTF-8"?>
<svg width="50px" height="30px" viewBox="0 0 50 30" version="1.1" xmlns="http://www.w3.org/2000/svg" xmlns:xlink="http://www.w3.org/1999/xlink">
    <!-- Generator: Sketch 47.1 (45422) - http://www.bohemiancoding.com/sketch -->
    <title>icon-payment-paypal-light</title>
    <desc>Created with Sketch.</desc>
    <defs></defs>
    <g id="Layouts" stroke="none" stroke-width="1" fill="none" fill-rule="evenodd">
        <g id="Cart" transform="translate(-433.000000, -760.000000)">
            <g id="icon-payment-paypal-light" transform="translate(458.000000, 775.000000) scale(1, -1) translate(-458.000000, -775.000000) translate(433.000000, 760.000000)">
                <g id="Group-3">
                    <rect id="Rectangle" fill="#FBF7F4" x="0.0922131148" y="0.0751689845" width="49.1803279" height="29.5081967" rx="4"></rect>
                    <g id="Group-2" transform="translate(8.852459, 10.327869)">
                        <path d="M21.4088174,6.27067682 C21.2766952,5.40315723 20.6142144,5.40315723 19.9732346,5.40315723 L19.608652,5.40315723 L19.864483,7.02290106 C19.8797518,7.12074631 19.9641979,7.192728 20.0632896,7.192728 L20.2306236,7.192728 C20.6668763,7.192728 21.0788235,7.192728 21.2913408,6.94437558 C21.4184773,6.79573807 21.4568052,6.57511886 21.4088174,6.27067682 M21.1299274,8.53420495 L18.7130876,8.53420495 C18.5476232,8.53420495 18.4070875,8.41392386 18.3812239,8.25064071 L17.404018,2.05335997 C17.3846982,1.93120922 17.4794274,1.82058801 17.6028245,1.82058801 L18.8430285,1.82058801 C18.9586355,1.82058801 19.057104,1.90472245 19.0751773,2.01877136 L19.3525093,3.77593478 C19.3780613,3.93921792 19.5189086,4.05949902 19.6840614,4.05949902 L20.44875,4.05949902 C22.0407606,4.05949902 22.9596957,4.82979658 23.1996346,6.35699253 C23.307763,7.02445911 23.2039972,7.54920875 22.8914533,7.91659581 C22.5477485,8.32044114 21.9385528,8.53420495 21.1299274,8.53420495" id="Shape" fill="#0079C1"></path>
                        <path d="M4.17069839,6.27067682 C4.03857616,5.40315723 3.37609532,5.40315723 2.73511551,5.40315723 L2.37053292,5.40315723 L2.62636395,7.02290106 C2.64163279,7.12074631 2.72607884,7.192728 2.82517052,7.192728 L2.99250458,7.192728 C3.42875725,7.192728 3.84070441,7.192728 4.05322178,6.94437558 C4.18035827,6.79573807 4.21868619,6.57511886 4.17069839,6.27067682 M3.89180829,8.53420495 L1.47496852,8.53420495 C1.30950411,8.53420495 1.16896843,8.41392386 1.14310488,8.25064071 L0.165898906,2.05335997 C0.146579145,1.93120922 0.240996686,1.82058801 0.364705478,1.82058801 L1.51890539,1.82058801 C1.68405819,1.82058801 1.82459387,1.9408691 1.85045742,2.10384063 L2.11439028,3.77593478 C2.13994223,3.93921792 2.28078952,4.05949902 2.44594231,4.05949902 L3.21063091,4.05949902 C4.80264154,4.05949902 5.72157662,4.82979658 5.96151559,6.35699253 C6.06964393,7.02445911 5.96587812,7.54920875 5.65333424,7.91659581 C5.30962946,8.32044114 4.70043377,8.53420495 3.89180829,8.53420495" id="Shape" fill="#00457C"></path>
                        <path d="M9.5027343,4.04585054 C9.39086665,3.38461614 8.86611701,2.94057325 8.19646917,2.94057325 C7.86086622,2.94057325 7.59194761,3.04870159 7.4193162,3.25311712 C7.24824283,3.455663 7.18373976,3.74452459 7.23795973,4.06579352 C7.34203716,4.72141896 7.87551185,5.17948426 8.53487659,5.17948426 C8.86362414,5.17948426 9.13036148,5.07042109 9.3064206,4.8641359 C9.48372614,4.65629267 9.55352657,4.36587303 9.5027343,4.04585054 M11.1156227,6.29847235 L9.95830672,6.29847235 C9.85921505,6.29847235 9.774769,6.22649066 9.75918854,6.12833381 L9.70839627,5.80488362 L9.62768952,5.92204862 C9.37684424,6.28569638 8.81812922,6.40753552 8.26034902,6.40753552 C6.9818171,6.40753552 5.88962738,5.43843138 5.67711001,4.07950432 C5.5664888,3.40144303 5.72353976,2.75360782 6.10806533,2.30146309 C6.46111838,1.88608823 6.96499021,1.71314521 7.56546084,1.71314521 C8.59626358,1.71314521 9.16775457,2.37500283 9.16775457,2.37500283 L9.11602747,2.05342229 C9.09670771,1.93127154 9.19112525,1.82065033 9.31514565,1.82065033 L10.3571663,1.82065033 C10.5226307,1.82065033 10.6631664,1.94061981 10.6890299,2.10390295 L11.3147409,6.06570039 C11.3340607,6.18785114 11.2393315,6.29847235 11.1156227,6.29847235" id="Shape" fill="#00457C"></path>
                        <path d="M26.7408845,4.04585054 C26.6290169,3.38461614 26.1042672,2.94057325 25.4346194,2.94057325 C25.0990164,2.94057325 24.8300978,3.04870159 24.6574664,3.25311712 C24.4860814,3.455663 24.42189,3.74452459 24.47611,4.06579352 C24.5801874,4.72141896 25.1136621,5.17948426 25.7730268,5.17948426 C26.1017744,5.17948426 26.3685117,5.07042109 26.5445708,4.8641359 C26.7218764,4.65629267 26.7916768,4.36587303 26.7408845,4.04585054 M28.3537729,6.29847235 L27.1964569,6.29847235 C27.0973653,6.29847235 27.0129192,6.22649066 26.9973388,6.12833381 L26.9465465,5.80488362 L26.8655281,5.92204862 C26.6149945,6.28569638 26.0562794,6.40753552 25.4984992,6.40753552 C24.2199673,6.40753552 23.1277776,5.43843138 22.9152602,4.07950432 C22.804639,3.40144303 22.96169,2.75360782 23.3462155,2.30146309 C23.6992686,1.88608823 24.2031404,1.71314521 24.8036111,1.71314521 C25.8344138,1.71314521 26.4059048,2.37500283 26.4059048,2.37500283 L26.3541777,2.05342229 C26.3348579,1.93127154 26.4292755,1.82065033 26.5532959,1.82065033 L27.5953165,1.82065033 C27.7607809,1.82065033 27.9013166,1.94061981 27.9271802,2.10390295 L28.5528911,6.06570039 C28.5722109,6.18785114 28.4774817,6.29847235 28.3537729,6.29847235" id="Shape" fill="#0079C1"></path>
                        <path d="M17.2794678,6.29844119 L16.1162312,6.29844119 C16.0049868,6.29844119 15.9009094,6.24328639 15.8385876,6.15105011 L14.233801,3.78780709 L13.55387,6.05881383 C13.5111796,6.20090756 13.3803038,6.29844119 13.2319779,6.29844119 L12.0886843,6.29844119 C11.9506415,6.29844119 11.8534195,6.16257964 11.8979796,6.03201545 L13.1786928,2.27214068 L11.9740122,0.572313321 C11.8795946,0.438944648 11.974947,0.254472092 12.1385418,0.254472092 L13.3005319,0.254472092 C13.4105299,0.254472092 13.5136725,0.308380457 13.5766175,0.398747081 L17.4449322,5.982158 C17.5374801,6.11583829 17.4421277,6.29844119 17.2794678,6.29844119" id="Shape" fill="#00457C"></path>
                        <path d="M29.7178104,8.3639106 L28.7259588,2.05320416 C28.706639,1.93105341 28.8010566,1.8204322 28.9247654,1.8204322 L29.9225375,1.8204322 C30.0876903,1.8204322 30.2285376,1.94071329 30.2540896,2.10399644 L31.2322304,8.30127718 C31.2515501,8.42342793 31.1571326,8.53404914 31.0331122,8.53404914 L29.9169286,8.53404914 C29.8175253,8.53404914 29.7330792,8.46206745 29.7178104,8.3639106" id="Shape" fill="#0079C1"></path>
                    </g>
                </g>
            </g>
        </g>
    </g>
</svg>