<?xml version="1.0" encoding="UTF-8"?>
<svg width="21px" height="12px" viewBox="0 0 21 12" version="1.1" xmlns="http://www.w3.org/2000/svg" xmlns:xlink="http://www.w3.org/1999/xlink">
    <!-- Generator: Sketch 47.1 (45422) - http://www.bohemiancoding.com/sketch -->
    <title>icon-google</title>
    <desc>Created with Sketch.</desc>
    <defs></defs>
    <g id="Layouts" stroke="none" stroke-width="1" fill="none" fill-rule="evenodd">
        <g id="Product-Accordion-Expanded" transform="translate(-1103.000000, -785.000000)" fill-rule="nonzero" fill="#A89D98">
            <g id="icon-google" transform="translate(1103.000000, 785.000000)">
                <path d="M6,5.14285714 L6,7.2 L9.40285714,7.2 C9.26571429,8.082 8.37428571,9.78857143 6,9.78857143 C3.95142857,9.78857143 2.28,8.09228571 2.28,6 C2.28,3.90857143 3.95142857,2.21142857 6,2.21142857 C7.16571429,2.21142857 7.94571429,2.70857143 8.39142857,3.13714286 L10.02,1.56857143 C8.97428571,0.591428571 7.62,0 6,0 C2.68285714,0 0,2.68285714 0,6 C0,9.31714286 2.68285714,12 6,12 C9.46285714,12 11.7608571,9.56571429 11.7608571,6.13714286 C11.7608571,5.74285714 11.7171429,5.44285714 11.6657143,5.14285714 L6,5.14285714 Z M6,5.14285714 L20.5714286,6.85714286 L18,6.85714286 L18,9.42857143 L16.2857143,9.42857143 L16.2857143,6.85714286 L13.7142857,6.85714286 L13.7142857,5.14285714 L16.2857143,5.14285714 L16.2857143,2.57142857 L18,2.57142857 L18,5.14285714 L20.5714286,5.14285714 L20.5714286,6.85714286 L6,5.14285714 Z" id="Shape"></path>
            </g>
        </g>
    </g>
</svg>