<?xml version="1.0" encoding="UTF-8"?>
<svg width="16px" height="16px" viewBox="0 0 16 16" version="1.1" xmlns="http://www.w3.org/2000/svg" xmlns:xlink="http://www.w3.org/1999/xlink">
    <!-- Generator: Sketch 47.1 (45422) - http://www.bohemiancoding.com/sketch -->
    <title>icon-pinterest</title>
    <desc>Created with Sketch.</desc>
    <defs></defs>
    <g id="Layouts" stroke="none" stroke-width="1" fill="none" fill-rule="evenodd">
        <g id="Product-Accordion-Expanded" transform="translate(-1071.000000, -783.000000)" fill-rule="nonzero" fill="#A89D98">
            <g id="icon-pinterest" transform="translate(1071.000000, 783.000000)">
                <path d="M8,0 C3.582,0 0,3.58133333 0,8 C0,11.3893333 2.10866667,14.284 5.08466667,15.4493333 C5.01466667,14.8166667 4.95133333,13.846 5.11266667,13.1553333 C5.258,12.5306667 6.05066667,9.17866667 6.05066667,9.17866667 C6.05066667,9.17866667 5.81133333,8.69933333 5.81133333,7.99066667 C5.81133333,6.87866667 6.456,6.048 7.25866667,6.048 C7.94066667,6.048 8.27066667,6.56066667 8.27066667,7.17466667 C8.27066667,7.86066667 7.834,8.88666667 7.608,9.838 C7.41933333,10.634 8.00733333,11.284 8.79266667,11.284 C10.2146667,11.284 11.3073333,9.78466667 11.3073333,7.62066667 C11.3073333,5.70533333 9.93133333,4.366 7.966,4.366 C5.69,4.366 4.354,6.07333333 4.354,7.83733333 C4.354,8.52466667 4.61866667,9.26266667 4.94933333,9.66266667 C5.01466667,9.742 5.024,9.812 5.00466667,9.89266667 L4.78266667,10.7993333 C4.74733333,10.946 4.66666667,10.9773333 4.51466667,10.9066667 C3.51533333,10.4413333 2.89066667,8.98066667 2.89066667,7.80733333 C2.89066667,5.284 4.724,2.966 8.17666667,2.966 C10.952,2.966 13.1086667,4.944 13.1086667,7.58666667 C13.1086667,10.344 11.3706667,12.5626667 8.95733333,12.5626667 C8.14666667,12.5626667 7.38466667,12.142 7.124,11.644 L6.62533333,13.546 C6.44466667,14.2413333 5.95733333,15.1126667 5.63066667,15.6433333 C6.38,15.8746667 7.17533333,16 8,16 C12.418,16 16,12.418 16,8 C16,3.58133333 12.418,2.36847579e-15 8,0 Z" id="Shape"></path>
            </g>
        </g>
    </g>
</svg>